<?xml version="1.0" encoding="utf-8" ?>
<svg baseProfile="tiny" height="340.0" version="1.2" width="980" xmlns="http://www.w3.org/2000/svg" xmlns:ev="http://www.w3.org/2001/xml-events" xmlns:xlink="http://www.w3.org/1999/xlink"><defs /><rect fill="white" height="340.0" width="980" x="0" y="0" /><g><rect fill="rgb(255, 242, 216)" height="100" width="980" x="0" y="20.0" /><text fill="black" font-family="sans" text-anchor="middle" x="70" y="70.0">customer actions</text><g><rect fill="rgb(182, 215, 168)" height="80" width="100" x="140" y="30.0" /><text fill="black" font-family="sans" text-anchor="middle" x="190" y="56.0">search</text><text fill="black" font-family="sans" text-anchor="middle" x="190" y="70.0">for blueprint</text><text fill="black" font-family="sans" text-anchor="middle" x="190" y="84.0">creator</text></g><g><rect fill="rgb(182, 215, 168)" height="80" width="100" x="260" y="30.0" /><text fill="black" font-family="sans" text-anchor="middle" x="310" y="63.0">download</text><text fill="black" font-family="sans" text-anchor="middle" x="310" y="77.0">blueprinta</text></g><g><rect fill="rgb(234, 153, 153)" height="80" width="100" x="380" y="30.0" /><text fill="black" font-family="sans" text-anchor="middle" x="430" y="63.0">problem</text><text fill="black" font-family="sans" text-anchor="middle" x="430" y="77.0">using</text></g><g><rect fill="rgb(182, 215, 168)" height="80" width="100" x="500" y="30.0" /><text fill="black" font-family="sans" text-anchor="middle" x="550" y="63.0">request</text><text fill="black" font-family="sans" text-anchor="middle" x="550" y="77.0">help</text></g><g><rect fill="rgb(182, 215, 168)" height="80" width="100" x="740" y="30.0" /><text fill="black" font-family="sans" text-anchor="middle" x="790" y="63.0">download</text><text fill="black" font-family="sans" text-anchor="middle" x="790" y="77.0">blueprinta</text></g><g><rect fill="rgb(182, 215, 168)" height="80" width="100" x="860" y="30.0" /><text fill="black" font-family="sans" text-anchor="middle" x="910" y="63.0">blueprint</text><text fill="black" font-family="sans" text-anchor="middle" x="910" y="77.0">created</text></g></g><g><rect fill="rgb(222, 228, 242)" height="100" width="980" x="0" y="120.0" /><text fill="black" font-family="sans" text-anchor="middle" x="70" y="170.0">touchpoints</text><g><rect fill="rgb(182, 215, 168)" height="80" width="100" x="140" y="130.0" /><text fill="black" font-family="sans" text-anchor="middle" x="190" y="170.0">google</text></g><g><rect fill="rgb(164, 194, 244)" height="80" width="100" x="260" y="130.0" /><text fill="black" font-family="sans" text-anchor="middle" x="310" y="170.0">github</text></g><g><rect fill="rgb(182, 215, 168)" height="80" width="100" x="500" y="130.0" /><text fill="black" font-family="sans" text-anchor="middle" x="550" y="170.0">email</text></g><g><rect fill="rgb(164, 194, 244)" height="80" width="100" x="740" y="130.0" /><text fill="black" font-family="sans" text-anchor="middle" x="790" y="170.0">github</text></g></g><g><rect fill="rgb(255, 242, 216)" height="100" width="980" x="0" y="220.0" /><text fill="black" font-family="sans" text-anchor="middle" x="70" y="270.0">blueprinta team</text><g><rect fill="rgb(255, 255, 255)" height="80" width="100" x="500" y="230.0" /><text fill="black" font-family="sans" text-anchor="middle" x="550" y="270.0">log bug</text></g><g><rect fill="rgb(255, 255, 255)" height="80" width="100" x="620" y="230.0" /><text fill="black" font-family="sans" text-anchor="middle" x="670" y="270.0">make fix</text></g><g><rect fill="rgb(255, 255, 255)" height="80" width="100" x="740" y="230.0" /><text fill="black" font-family="sans" text-anchor="middle" x="790" y="270.0">upload</text></g></g></svg>